<?xml version="1.0" encoding="utf-8"?>
<!-- Generator: Adobe Illustrator 23.0.3, SVG Export Plug-In . SVG Version: 6.00 Build 0)  -->
<svg version="1.1" id="Capa_1" xmlns="http://www.w3.org/2000/svg" xmlns:xlink="http://www.w3.org/1999/xlink" x="0px" y="0px"
	 viewBox="0 0 1080 1080" style="enable-background:new 0 0 1080 1080;" xml:space="preserve">
<style type="text/css">
	.st0{fill:#FFFFFF;}
	.st1{fill:#DA291C;}
	.st2{fill:#D60812;}
	.st3{opacity:0.3;}
	.st4{fill:#212023;}
	.st5{fill:#FE000C;}
	.st6{fill:#F6BB00;}
	.st7{fill:#00428B;}
	.st8{fill:#F6BB01;}
	.st9{fill:#F7BB01;}
	.st10{fill:#F3BD0A;}
	.st11{fill:#F2BC0B;}
	.st12{fill:#F3BB0B;}
	.st13{fill:#F3BC09;}
	.st14{fill:#F2BB0B;}
	.st15{fill:#F3BB0A;}
	.st16{fill:#F3BB08;}
	.st17{fill:#F2BC0A;}
	.st18{fill:#F3BC0A;}
	.st19{fill:#F2BB09;}
	.st20{fill:#F3BB09;}
	.st21{fill:#F4BC0A;}
	.st22{fill:#F3BC08;}
	.st23{fill:#F4BC09;}
	.st24{fill:#F5BC08;}
	.st25{fill:#F5BB09;}
	.st26{fill:#F5BC09;}
	.st27{fill:#F5BB0A;}
	.st28{fill:#F5BC0A;}
	.st29{fill:#F4BB0B;}
	.st30{fill:#F4BB0A;}
	.st31{fill:#F4BC08;}
	.st32{fill:#F3BD0B;}
	.st33{fill:#F4BC0B;}
	.st34{fill:#F5BD09;}
	.st35{fill:#F5BD0A;}
	.st36{fill:#064388;}
	.st37{fill:#034189;}
	.st38{fill:#084082;}
	.st39{fill:#ED1C24;}
	.st40{fill:#00273E;}
	.st41{fill:#029CDC;}
	.st42{fill:#040607;}
	.st43{fill:#EA202C;}
	.st44{fill:#FEFEFE;}
	.st45{fill:#263A54;}
	.st46{fill:#FDFDFD;}
	.st47{fill:#E1211C;}
	.st48{fill:#FAF6F5;}
	.st49{fill:#FAF7F7;}
	.st50{fill:#FBF7F5;}
	.st51{fill:#FAF8F7;}
	.st52{fill:#F9EFED;}
	.st53{fill:#FBFBFB;}
	.st54{fill:#FCFCFC;}
	.st55{fill:#E9C41B;}
	.st56{fill:#195AB6;}
	.st57{fill:#84D1F0;}
	.st58{fill:#035188;}
	.st59{fill:#04508D;}
	.st60{fill:#025287;}
	.st61{fill:#E4B65A;}
	.st62{fill:#04518F;}
	.st63{fill:#E6B459;}
	.st64{fill:#E3B359;}
	.st65{fill:#234D7B;}
	.st66{fill:#025985;}
	.st67{fill:#8FCFE5;}
	.st68{fill:#93D2E9;}
	.st69{fill:#80D0E9;}
	.st70{fill:#014F81;}
	.st71{fill:#024B7C;}
	.st72{fill:#044C7C;}
	.st73{fill:#024B7A;}
	.st74{fill:#A2C8D7;}
	.st75{fill:#D3BC7D;}
	.st76{fill:#358BB6;}
	.st77{fill:#5599BC;}
	.st78{fill:#2C79A6;}
	.st79{fill:#64A7C9;}
	.st80{fill:#7CAEC8;}
	.st81{fill:#68A3C6;}
	.st82{fill:#2F79B1;}
	.st83{fill:#689FBF;}
	.st84{fill:#6FA5C8;}
	.st85{fill:#034E7C;}
	.st86{fill:#99BBCE;}
	.st87{fill:#A3C3D5;}
	.st88{fill:#EDE1AA;}
	.st89{fill:#81B2CE;}
	.st90{fill:#719CBD;}
	.st91{fill:#9ECFD4;}
	.st92{fill:#0F4474;}
	.st93{fill:#174173;}
	.st94{fill:#E1B764;}
	.st95{fill:#016083;}
	.st96{fill:#089591;}
	.st97{fill:#0B9794;}
	.st98{fill:#069791;}
	.st99{fill:#079A93;}
	.st100{fill:#099593;}
	.st101{fill:#089798;}
	.st102{fill:#059699;}
	.st103{fill:#069596;}
	.st104{fill:#079592;}
	.st105{fill:#144D77;}
	.st106{fill:#144C77;}
	.st107{fill:#07988F;}
	.st108{fill:#024D7B;}
	.st109{fill:#CEB27B;}
	.st110{fill:#4C696A;}
	.st111{fill:#8FB7CE;}
	.st112{fill:#035582;}
	.st113{fill:#025D82;}
	.st114{fill:#055383;}
	.st115{fill:#099795;}
	.st116{fill:#06989A;}
	.st117{fill:#079B94;}
	.st118{fill:#099498;}
	.st119{fill:#0A9995;}
	.st120{fill:#049C92;}
	.st121{fill:#045B82;}
	.st122{fill:#039F90;}
	.st123{fill:#099698;}
	.st124{fill:#069D91;}
	.st125{fill:#059398;}
	.st126{fill:#0A9397;}
	.st127{fill:#099995;}
	.st128{fill:#045583;}
	.st129{fill:#055A81;}
	.st130{fill:#035B80;}
	.st131{fill:#0B9197;}
	.st132{fill:#109496;}
	.st133{fill:#D0AF72;}
	.st134{fill:#015D7C;}
	.st135{fill:#036896;}
	.st136{fill:#1A8BA8;}
	.st137{fill:#7DBDD0;}
	.st138{fill:#016481;}
	.st139{fill:#099694;}
	.st140{fill:#089593;}
	.st141{fill:#069799;}
	.st142{fill:#0A9597;}
	.st143{fill:#099695;}
	.st144{fill:#104A72;}
	.st145{fill:#0A9598;}
	.st146{fill:#079994;}
	.st147{fill:#124972;}
	.st148{fill:#064B94;}
	.st149{fill:#024E78;}
	.st150{fill:#93C4E2;}
	.st151{fill:#099594;}
	.st152{fill:#069A96;}
	.st153{fill:#079B97;}
	.st154{fill:#069B93;}
	.st155{fill:#059891;}
	.st156{fill:#0B9594;}
	.st157{fill:#0F9799;}
	.st158{fill:#045883;}
	.st159{fill:#035B81;}
	.st160{fill:#035C80;}
	.st161{fill:#0B4977;}
	.st162{fill:#097CA3;}
	.st163{fill:#1786AA;}
	.st164{fill:#DDB565;}
	.st165{fill:#0D346A;}
	.st166{fill:#D5B279;}
	.st167{fill:#E5B458;}
	.st168{fill:#E6B359;}
	.st169{fill:#E0B664;}
	.st170{fill:#084C8B;}
	.st171{fill:#094C8E;}
	.st172{fill:#D9B76E;}
	.st173{fill:#DDB673;}
	.st174{fill:#D3B77D;}
	.st175{fill:#D6B67C;}
	.st176{fill:#083E66;}
	.st177{fill:#EBC085;}
	.st178{fill:#928E81;}
	.st179{fill:#7D856C;}
	.st180{fill:#12456C;}
	.st181{fill:#718176;}
	.st182{fill:#767F6D;}
	.st183{fill:#636C5A;}
	.st184{fill:#164860;}
	.st185{fill:#D1B17F;}
	.st186{fill:#D7B27F;}
	.st187{fill:#025D7C;}
	.st188{fill:#CAB47B;}
	.st189{fill:#079797;}
	.st190{fill:#A7C8DA;}
	.st191{fill:#0A9A92;}
	.st192{fill:#124B7D;}
	.st193{fill:#66777C;}
	.st194{fill:#F6D48C;}
	.st195{fill:#4F6262;}
	.st196{fill:#014F96;}
	.st197{fill:#18507D;}
	.st198{fill:#E0B569;}
	.st199{fill:#154D73;}
	.st200{fill:#025094;}
	.st201{fill:#DEB36A;}
	.st202{fill:#104361;}
	.st203{fill:#AD9673;}
	.st204{fill:#A2A694;}
	.st205{fill:#A4A389;}
	.st206{fill:#3A464A;}
	.st207{fill:#025093;}
	.st208{fill:#E1B365;}
	.st209{fill:#C1B48C;}
	.st210{fill:#24484B;}
	.st211{fill:#A1946D;}
	.st212{fill:#193542;}
	.st213{fill:#144D71;}
	.st214{fill:#575F75;}
	.st215{fill:#174663;}
	.st216{fill:#133F58;}
	.st217{fill:#FE402E;}
</style>
<g id="Nuevo_símbolo_10">
</g>
<g>
	<path class="st217" d="M340.46,383.24c10.5,0,21.94-0.26,33.37,0.05c42.32,1.13,84.62,3.16,126.94,3.4
		c22.43,0.12,44.85-3.61,67.31-4.1c38.87-0.83,77.77-0.79,116.66-0.5c17.8,0.13,35.59,1.69,52.37,2.55c0,17.55,0.47,34.35-0.1,51.11
		c-1.07,31.54-2.82,63.06-4.05,94.6c-0.18,4.61-1.7,7.17-5.64,9.94c-20.63,14.44-40.85,29.47-61.26,44.23
		c-4.4,3.18-6.42,7.18-5.4,12.64c1.92,10.25,3.76,20.51,5.79,31.68c-8.27-0.52-16.31-0.61-24.23-1.6
		c-19.21-2.41-37.89,0.06-56.84,3.44c-19.67,3.5-39.74,5.96-59.7,6.44c-32.01,0.78-64.07-0.43-96.11-0.83
		c-0.68-0.01-1.36-0.41-1.84-0.57c0-11.81-0.39-23.47,0.15-35.09c0.31-6.67-2.02-10.19-7.6-14.1
		c-15.57-10.92-30.38-22.94-45.32-34.75c-13.81-10.91-27.28-22.24-41.14-33.07c-3.8-2.97-4.81-6.01-4.26-10.65
		c3.77-31.8,7.54-63.61,10.75-95.47C341.28,402.98,340.46,393.22,340.46,383.24z M483.33,543.54c1.14-4.27,1.49-7.51,2.83-10.26
		c9.42-19.32,18.19-39.03,33.68-54.68c3.18-3.21,5.7-7.37,7.59-11.52c3.94-8.66,2.63-11.26-6.35-13.84
		c-6.33-1.82-12.83-3.06-19.16-4.9c-29.08-8.45-58.1-17.15-87.21-25.51c-13.63-3.92-13.08-3.52-16.35,10.24
		c-4,16.84-8.92,33.48-13.95,50.05c-2.2,7.26-0.47,10.9,6.64,14.11c24.05,10.84,47.84,22.28,71.56,33.85
		C469.55,534.45,475.9,539.02,483.33,543.54z M707.41,436.63c-39.58,8-77.97,15.76-117.54,23.76c1.92,2.33,3.22,4.24,4.85,5.83
		c9.03,8.84,16.21,18.76,20.27,30.95c5.32,16,11.29,31.78,16.69,47.75c1.82,5.4,4.48,6.7,9.84,4.65
		c19.16-7.31,38.37-14.49,57.7-21.32c5.09-1.8,6.45-4.61,6.53-9.68c0.36-24.21,1.09-48.41,1.66-72.61
		C707.48,442.84,707.41,439.71,707.41,436.63z M571.51,474c-0.62-0.13-1.24-0.25-1.86-0.38c-1.23,1.87-2.69,3.64-3.66,5.64
		c-4.88,10.12-9.94,20.16-14.36,30.48c-10.48,24.45-20.88,48.95-30.81,73.62c-4.51,11.2-3.86,12.08,7.74,13.04
		c18.74,1.54,37.54,2.39,56.31,3.72c5.79,0.41,7.76-1.09,6.66-7.43c-5.5-31.52-10.53-63.13-15.77-94.7
		C574.42,489.99,572.93,482,571.51,474z"/>
	<path class="st217" d="M289.45,241.14c-27.33,30.26-54.45,60.29-81.67,90.44c-25.03-35.15-31.92-79.12-56.18-115.71
		c2.3-0.28,4.04-0.69,5.77-0.68c112.11,0.15,224.22-0.34,336.32,0.69c110.13,1.02,220.25,3.84,330.38,5.31
		c31.02,0.41,62.06-1.2,93.1-1.82c3.38-0.07,6.77,0.34,11.24,0.59c-10.68,40.5-28.41,77.34-45.62,116.41
		c-8.2-7.7-15.04-14.2-21.97-20.6c-20.53-18.97-39.85-39.04-56.13-61.84c-3.26-4.57-6.34-4.68-10.24-1.3
		c-15.15,13.14-30.18,26.41-45.47,39.38c-12.66,10.74-25.61,21.12-38.64,31.82c-1.52-1.17-2.54-1.77-3.34-2.6
		c-22.36-22.9-44.72-45.81-67.03-68.76c-3.65-3.76-6.5-1.76-9.43,0.89c-16.31,14.77-32.52,29.66-48.99,44.25
		c-7.86,6.97-16.26,13.34-24.35,20.05c-4.03,3.34-7.45,3.32-11.42-0.49c-22.91-22-45.9-43.91-69.15-65.56
		c-1.85-1.72-6.73-2.67-8.64-1.47c-26.7,16.73-54.34,32.21-76.22,55.63c-4.48,4.79-10.05,8.55-14.97,12.96
		c-3.64,3.26-6.52,3-9.99-0.53c-21.27-21.61-42.68-43.09-64.1-64.56C298.59,249.51,294.22,245.62,289.45,241.14z"/>
	<path class="st217" d="M206.22,360.67c8.79-7.68,16.54-14.99,24.86-21.59c11.92-9.47,20.2-21.59,28.24-34.32
		c7.23-11.45,16.48-21.64,25.07-32.2c3.11-3.83,6.66-3.46,9.8,0.42c1.23,1.52,2.8,2.79,3.89,4.39
		c17.84,26.37,43.26,45.04,66.56,65.89c3.56,3.19,6.02,2.78,9.45,0.11c30.33-23.56,60.8-46.95,91.09-70.56
		c5.46-4.26,7.82-0.89,11.3,2.77c19.52,20.57,38.87,41.33,59.15,61.12c11.82,11.53,14.79,11.22,27.41,0.38
		c22.45-19.27,44.52-38.98,66.44-58.86c4.11-3.73,6.69-3.74,10.28-0.05c15.88,16.29,31.88,32.47,47.76,48.78
		c6.13,6.3,11.92,12.94,18.18,19.11c1.23,1.21,4.74,2.05,5.77,1.24c12.62-9.91,24.94-20.21,37.41-30.31
		c14.82-12.01,29.81-23.81,44.49-35.97c3.65-3.02,5.69-2.94,9.07,0.5c22.44,22.84,44.99,45.59,67.88,67.98
		c4.38,4.28,4.21,7.93,2.6,12.96c-1.67,5.22-5.34,5.53-9.77,5.51c-97.19-0.32-194.38-0.3-291.56-0.96
		c-64.86-0.44-129.72-1.8-194.58-2.81c-55.8-0.86-111.59-1.8-167.38-2.72C208.98,361.48,208.34,361.2,206.22,360.67z"/>
	<path class="st217" d="M719.55,197.65c-114.21,0-228.43,0-342.83,0c0.89-1.11,2.27-3.24,4.03-4.98
		c9.4-9.29,18.48-18.96,28.45-27.61c18.73-16.25,33.12-35.85,46.4-56.52c1.9-2.96,6.05-5.83,9.48-6.26
		c23.05-2.92,46.17-5.24,69.28-7.61c26.5-2.71,51.73-10.41,76.5-19.69c7.74-2.9,12.91-2.7,18.69,4.55
		c24.56,30.79,49.99,60.88,74.77,91.5c6.08,7.51,10.87,16.07,16.25,24.14C720.23,196,719.89,196.83,719.55,197.65z"/>
	<path class="st217" d="M721.14,898.73c2.86-16.95,6.28-37.41,9.81-57.86c1.16-6.75,2.3-13.53,4.07-20.13
		c0.66-2.46,2.64-5.66,4.79-6.46c15.1-5.62,30.36-10.87,45.69-15.82c2.73-0.88,6.27-0.44,9.1,0.46c4.63,1.48,8.82,4.4,13.47,5.72
		c15.98,4.53,22.82,16.18,27.17,31.18c4.69,16.18,11.56,31.72,16.59,47.81c1.97,6.28,2.94,13.54,1.94,19.97
		c-4.04,25.85-8.96,51.57-13.82,77.28c-0.42,2.2-2.41,5.07-4.38,5.87c-15.18,6.14-30.6,11.72-45.83,17.74
		c-8.86,3.5-16.61,1.98-24.07-3.63c-11.14-8.38-22.58-16.39-33.65-24.86c-2.08-1.59-4.1-4.53-4.36-7.04
		C725.37,946.83,723.49,924.66,721.14,898.73z M815.35,913.07c-2.78-13.68-4.65-26.8-8.27-39.42c-2.72-9.47-7.44-18.43-11.87-27.31
		c-0.92-1.84-5.22-3.94-6.71-3.25c-9.33,4.36-18.67,9.01-19.69,21.34c-2.1,25.31-4.57,50.6-6.37,75.93
		c-0.21,2.94,2.01,7.47,4.47,8.91c9.03,5.28,18.56,9.77,28.14,14.02c1.57,0.7,5.9-0.82,6.31-2.13
		C806.36,945.11,810.84,928.9,815.35,913.07z"/>
	<path class="st217" d="M375.32,803.36c13.7,0,26.15,0.06,38.6-0.03c4.32-0.03,4.41,2.61,4.46,5.83c0.28,19.57,0.86,39.13,0.93,58.7
		c0.02,6.34,2.36,8.58,8.61,8.52c7.99-0.07,15.98,0.71,25.04,1.18c-1.42-24.43-2.8-48.21-4.26-73.41
		c14.07,1.48,27.5,2.89,40.42,4.25c2.68,62.39,5.33,124.08,8.03,187.05c-8.83-1.36-17.66-2.6-26.46-4.09
		c-16.41-2.78-16.48-2.84-16.13-19.71c0.32-15.16,0.62-30.33,1.4-45.47c0.3-5.73-1.61-7.12-7.06-6.76
		c-6.07,0.4-12.24-0.02-18.32-0.58c-6.51-0.59-9.32,1.33-8.82,8.48c1.47,20.98,2.37,41.99,3.52,62.99c0.14,2.65,0.42,5.3,0.73,9.12
		c-4.88-0.33-9.21-0.25-13.4-0.99c-9.62-1.69-19.11-4.18-28.77-5.56c-5.07-0.72-6.26-2.55-6.09-7.47
		c0.78-22.72,1.9-45.47,1.46-68.18c-0.68-34.94-2.54-69.86-3.88-104.79C375.22,809.56,375.32,806.67,375.32,803.36z"/>
	<path class="st217" d="M594.68,996.12c-1.1-17.61-2.38-34.64-3.19-51.7c-2.2-46.17-4.08-92.36-6.4-138.52
		c-0.32-6.29,1.56-8.14,7.64-7.83c8.78,0.45,17.66,0.75,26.4-0.01c12.23-1.06,22.34,2.86,31.92,10.07
		c14.45,10.88,29.39,21.13,43.87,31.97c2.43,1.82,4.88,5.21,5.17,8.08c2.53,25.78,4.52,51.61,6.8,77.42
		c0.8,9.01-1.59,16.64-7.44,23.71c-11.37,13.75-22.08,28.05-33.48,41.77c-2.08,2.51-6.09,4.74-9.26,4.81
		C636.19,996.33,615.66,996.12,594.68,996.12z M629.59,953.25c0.73,0.58,1.46,1.16,2.19,1.74c11.41-8.25,22.89-16.4,34.21-24.78
		c7.25-5.37,8.63-12.17,5.37-20.72c-5.48-14.38-10.15-29.06-15.41-43.52c-0.86-2.37-2.52-5.37-4.58-6.22
		c-9.61-3.94-19.48-7.23-31.3-11.48C623.36,884.6,626.48,918.92,629.59,953.25z"/>
	<path class="st217" d="M669.49,650.25c2.95,25.92,5.78,50.78,8.74,76.85c-81.82,4.87-165.12,9.82-249.3,14.83
		c-0.08-0.71-0.56-3.27-0.65-5.84c-0.74-21.03-1.3-42.06-2.16-63.08c-0.19-4.63,1-6.71,5.99-6.59c10.94,0.25,21.9,0.08,33.8,0.08
		c0,9.51,0,19.65,0,30.54c11.48-2.22,21.96-4.1,32.31-6.48c1.11-0.26,2.09-3.47,2.17-5.35c0.26-6.54,0.1-13.11,0.1-19.11
		c23.79-2.49,47.46-4.97,71.53-7.49c1.44,7.04,3.06,13.61,4.04,20.27c0.68,4.64,2.3,6.89,7.44,6.58c13.18-0.8,26.38-1.22,39.58-1.72
		c5.27-0.2,6.18-2.75,4.46-7.27c-1.56-4.1-2.66-8.38-4.26-12.47c-2.62-6.69,0.08-9.61,6.67-10.19
		C643.33,652.63,656.7,651.4,669.49,650.25z"/>
	<path class="st217" d="M321.51,926.54c12.13,3.62,23.08,6.95,34.08,10.13c4.57,1.32,6.51,4.24,5.67,8.77
		c-2.53,13.69-5.09,27.38-7.99,40.99c-0.34,1.61-2.65,3.36-4.42,4c-13.35,4.78-26.87,9.07-40.18,13.97
		c-17.47,6.43-30.39-1.04-41.63-13.26c-11.85-12.88-19.2-27.32-20.12-45.71c-1.85-36.85-5.37-73.61-8.55-110.39
		c-0.51-5.86,0.45-8.35,6.75-9.99c25.04-6.52,49.86-13.91,74.8-20.86c7.24-2.02,14.58-3.63,22.26-5.53
		c5.41,19.35,10.69,37.85,15.59,56.46c0.39,1.47-1.48,4.53-3.07,5.35c-7.6,3.91-15.63,6.98-23.18,10.97
		c-4.94,2.61-8.3,1.84-11.1-2.7c-5.98-9.68-14.89-13.11-25.71-11.22c-2.72,0.47-6.7,2.89-7.27,5.13
		c-4.51,17.75-8.84,35.58-6.27,54.22c1.2,8.71,2.02,17.5,2.58,26.28c0.39,6.18,2.96,10.61,8.22,13.78
		c4.61,2.77,9.03,5.84,13.57,8.74c4.46,2.85,7.09,1.9,8.21-3.56C316.08,950.65,318.71,939.24,321.51,926.54z"/>
	<path class="st217" d="M561.63,797.27c-2.15,61.66-0.44,124.08,6.89,186.48c-17.21,3.87-33.06,7.44-50.03,11.26
		c-0.26-3.66-0.58-6.19-0.59-8.73c-0.21-35.22,0.18-70.46-0.76-105.66c-0.69-25.64-3.04-51.24-4.87-76.84
		c-0.29-4.04-0.3-6.63,4.83-6.57C531.5,797.38,545.89,797.27,561.63,797.27z"/>
</g>
</svg>
