<?xml version="1.0" encoding="utf-8"?>
<!-- Generator: Adobe Illustrator 23.0.3, SVG Export Plug-In . SVG Version: 6.00 Build 0)  -->
<svg version="1.1" id="Capa_1" xmlns="http://www.w3.org/2000/svg" xmlns:xlink="http://www.w3.org/1999/xlink" x="0px" y="0px"
	 viewBox="0 0 1118.3 670.6" style="enable-background:new 0 0 1118.3 670.6;" xml:space="preserve">
<style type="text/css">
	.st0{fill:#FE402E;}
	.st1{fill:#1E1D22;}
</style>
<g id="Nuevo_símbolo_10">
</g>
<g>
	<g>
		<path class="st0" d="M521.6,327.9c3.3-3.3,6.6-6.7,10-10.1c13.2-13.1,27.2-25.2,43.6-34.2c9-5,18.6-7.8,28.9-8.5
			c1.9-0.1,4.1-0.1,5.8,0.5c8.2,3,9.8,6.4,9.4,13.3c-0.4,6.5-2.7,12.6-5.5,18.4c-8.5,17.7-17,35.3-25.5,53c-0.9,1.9-1.9,3.9-2.4,6
			c-0.4,1.5-0.6,3.5,0.2,4.5c0.5,0.7,3,0.7,4.2,0.2c3.5-1.5,7-3.2,10.3-5.2c3.9-2.5,7.6-5.4,11.4-8.1c4.4-3.2,6-8.2,8.2-12.7
			c9.8-20.3,19.5-40.7,29.3-61c11.2-23.2,22.4-46.5,33.6-69.7c0.4-0.8,1.7-1.7,2.6-1.7c13.5-0.1,27.1,0,40.6,0.1
			c2.5,0,3.2,1,2.4,3.5c-0.7,2.3-1.7,4.5-2.7,6.7c-10.6,21.7-21.2,43.3-31.7,65c-1.3,2.6-2.3,5.4-3.4,7.9
			c7.5-4.6,14.8-9.6,22.6-13.6c13-6.7,26.8-9.3,41.3-5c9.9,2.9,15.6,9.5,18,19.4c2.5,10.7-1,20.1-6,29.2
			c-5.4,9.7-13.5,17.1-22.2,23.8c-9,6.9-18.9,12.3-29.5,16.3c-2.6,1-3.5,2.4-3.4,5.2c0.3,8.5,0.9,17.1,3.9,25.1
			c6,16.3,17.5,27.3,34,32.7c16.9,5.5,33.9,5.8,51.1,1c1.4-0.4,2.8-0.6,4.2-0.8c1.8-0.3,2.5,0.8,1.8,2.2c-0.7,1.5-1.8,2.9-3,4.1
			c-10.6,10.3-23.9,15.3-38.1,18c-13.3,2.5-26.8,2.4-40-0.8c-25.2-6.1-41.7-21.5-49.4-46.3c-3.1-10.1-4.2-20.5-4.7-31
			c-0.2-4.6-0.8-9.2-0.5-13.7c0.7-8.5,0.8-7.8,7.5-10.1c11.2-3.8,21.7-9,31.3-15.9c5.7-4.1,10.9-8.8,14.6-14.9
			c0.5-0.8,1-1.5,1.3-2.3c1.3-3.2,2.2-6.7,0-9.5c-2.2-2.8-6-3.3-9.4-2.4c-3.3,0.9-6.7,2.1-9.8,3.6c-18.4,9.1-32,23.1-41.4,41.2
			c-9.2,17.8-18.1,35.8-27.1,53.8c-1.2,2.4-2.4,4.8-3.3,7.3c-0.8,2.2-2.3,3.3-4.7,3.3c-3.4,0-6.8,0-10.2,0c-9.2,0-18.5,0-27.7-0.2
			c-4.4-0.1-5.3-1.7-3.5-5.7c2.7-5.8,5.7-11.6,8.5-17.4c0.4-0.8,0.7-1.5,1-2.3c-0.2-0.2-0.4-0.3-0.6-0.5c-0.7,0.5-1.3,1-2,1.4
			c-7.9,5.4-15.6,11.1-23.7,16.2c-6.2,3.9-13.1,6.2-20.2,7.8c-4.9,1.1-9.7,0.7-14.4-0.6c-7-1.9-10.5-7.2-10.2-15.1
			c0.3-8.2,2.9-15.8,6-23.3c5.9-14.4,13.9-27.7,22.2-40.8c1-1.5,1.8-3.1,2.4-4.8c0.3-0.9,0.6-2.4,0.1-3c-0.4-0.6-2-0.7-2.9-0.4
			c-2.3,0.8-4.5,1.7-6.5,3c-11.9,7.7-21.4,17.9-30,29c-10.3,13.3-20,27.1-30.2,40.4c-3.6,4.7-7.7,9-12.2,12.8
			c-6.9,5.8-17.4,3.1-21.4-5c-0.8-1.6-1.5-3.2-2.3-5.1c-2.5,1.7-4.9,3.3-7.2,4.8c-6.8,4.6-14,8.2-22.4,8.1c-4,0-8.1-0.6-11.8-2
			c-6.3-2.2-9.1-7.6-10.3-13.8c-0.6-2.9-0.4-6-0.6-9.3c-0.9,1.1-1.7,2.3-2.7,3.4c-14.3,15.3-31.3,24-52.9,21.2
			c-14-1.8-23.8-9.4-29.6-22.1c-7.8-17-7.5-34.5-1.6-51.9c6-17.5,15.3-33,29.4-45.2c11.9-10.3,25.6-17,41.2-19.7
			c8-1.4,15.8-2.1,23.6,0.9c8.3,3.2,14.2,8.8,17.1,17.4c0.3,0.8,0.7,1.5,1.4,2.9c2.2-4.6,4.1-8.6,6.1-12.6c1.3-2.6,2.4-5.2,3.9-7.6
			c0.5-0.9,1.8-1.9,2.8-1.9c11.4-0.1,22.8,0,34.1-0.1c2.6,0,3.1,1.7,2.7,3.6c-0.4,1.9-1.2,3.8-2,5.5c-10.3,21.3-20.7,42.5-31,63.8
			c-2.9,6-5.8,12.1-8.3,18.3c-0.7,1.7-0.7,3.9-0.4,5.7c0.7,3.8,3.7,5.8,7.4,4.6c7.5-2.3,13.9-6.3,17.4-13.7
			c12.2-25.3,24.4-50.7,36.6-76c1.5-3.2,3.3-6.4,4.7-9.6c0.8-1.8,2-2.3,3.8-2.3c12.3,0,24.5,0,36.8,0c3.5,0,4.9,2,3.6,5.4
			c-0.6,1.5-1.3,3-2,4.4c-6.8,13.9-13.6,27.9-20.4,41.8c-0.1,0.2-0.1,0.5-0.2,0.8C521.4,327.7,521.5,327.8,521.6,327.9z
			 M403.5,333.1c-0.5-7.4-2.3-13.1-8.7-16.4c-5.4-2.8-10.6-1.8-15.8,0.4c-8.5,3.7-15.1,9.8-20.1,17.6c-4.1,6.3-6.8,13.1-7.3,20.5
			c-0.7,10.2,6.4,20.4,19.9,16.9c2.9-0.7,5.7-2.1,8.3-3.6C393.9,360.6,401.4,348.3,403.5,333.1z"/>
		<path class="st0" d="M183.3,321c4.6-1.2,9.2-2.1,13.7-3.5c14.1-4.4,26.7-11.6,37.8-21.5c1.6-1.4,1.8-2.5,0.8-4.4
			c-4.3-8.7-5.6-17.6-2.8-27.1c4.4-14.6,20.3-21.2,32.8-13.6c5.9,3.6,8.5,9.5,9,16c0.7,8.8-2.1,16.8-7,24c-0.7,1-1.2,2-2.1,3.6
			c2.3,0.3,4,0.8,5.8,0.8c6.9,0,13.8-0.1,20.7-0.2c2,0,4-0.2,5.9-0.1c4.7,0.3,8,3.5,7.3,8.1c-0.7,4.3-2,8.5-3.9,12.4
			c-7.5,15.6-12.1,32-13.3,49.3c-1,15.1,2.2,29.4,10.7,42.2c0.4,0.6,0.8,1.2,1.2,1.8c2.4,4,1.2,6.5-3.3,6.6
			c-11.2,0.2-22.4,0.3-33.6,0.1c-7.5-0.1-9.9-2.1-11.4-9.5c-1-5.3-1.9-10.8-1.8-16.2c0.1-6.1,1.1-12.2,2.1-18.3
			c2.8-17.1,9.1-32.9,17.5-48c0.9-1.6,1.6-3.2,2.3-4.8c1.1-2.6,0.7-3.4-2.1-4.2c-4.6-1.2-9.4-1.9-13.7-3.7c-3.7-1.6-5.8-0.5-8.3,2
			c-16.4,16.7-35.4,29.7-57.2,38.3c-7.3,2.9-15,4.9-22.6,7c-2.6,0.8-4.3,1.6-5.6,4.4c-3.9,8.8-8.4,17.2-12.6,25.8
			c-12.3,25.7-24.7,51.3-36.9,77.1c-2.3,4.8-5.6,6.7-10.8,3c-8.9-6.3-18-12.4-27-18.6c-2.8-2-3.6-4-2.1-7.5
			c1.9-4.3,4.1-8.5,6.2-12.8c10.4-21.4,20.8-42.9,31.1-64.3c2.2-4.5,1.9-5.1-3.2-5.9c-12.6-2-24.8-5.8-36.7-10.2
			c-0.6-0.2-1.2-0.4-1.8-0.7c-4-1.8-5.2-5-2.7-8.7c7.5-10.8,15.1-21.5,22.8-32.2c2.2-3.1,3.1-3.3,6.6-1.8c5.4,2.3,10.6,4.9,16,6.9
			c6.4,2.4,13.1,4.3,19.7,6.3c0.6,0.2,1.8-0.6,2.1-1.2c6.1-12.3,12.2-24.5,18.2-36.9c7.4-15.3,14.8-30.6,22.1-46
			c2.4-5.1,5.9-7.7,12-7.5c10.9,0.5,21.9,0.1,32.8,0.2c4.8,0,6.8,2.5,5.1,7.1c-1.9,5.2-4.6,10.1-6.9,15.1
			c-10.8,22.5-21.6,45.1-32.4,67.6c-0.4,0.8-0.7,1.6-1,2.4C183,320.5,183.1,320.8,183.3,321z"/>
		<path class="st0" d="M836.7,403.7c-3.5,1.8-6.9,3.8-10.4,5.4c-14.2,6.4-28.8,8.3-44,4.6c-12.2-3-19.5-12.8-19.8-26.1
			c-0.3-12.3,3.3-23.6,8.7-34.5c11.6-23.7,22.9-47.4,34.3-71.2c3.2-6.6,3.2-6.7,10.4-6.7c8.7,0,17.4,0,26.1,0c3.5,0,4.8,2,3.6,5.4
			c-0.6,1.6-1.4,3.1-2.1,4.6c-11.2,23.1-22.5,46.2-33.6,69.4c-1.8,3.7-2.9,8-3.4,12c-0.8,7,3.2,12.2,10.2,13.6
			c4.6,0.9,9.1,0.5,13.4-1.6c12.2-5.7,20.7-15.3,26.7-27c10.4-20.5,20.3-41.3,30.4-62c2.1-4.3,4.2-8.5,6.6-12.6
			c0.5-0.9,1.9-1.7,2.8-1.8c10.6-0.1,21.1-0.1,31.7,0c3,0,3.9,1.1,2.8,4.1c-1.1,3.3-2.6,6.5-4,9.7c-12.3,26.9-24.6,53.7-36.8,80.7
			c-8.4,18.5-16.7,37.1-25,55.6c-8.9,19.6-20.2,37.6-35.3,53c-10.9,11.1-23.3,20.2-37.3,26.8c-8.3,3.9-16.9,7.5-25.6,10.4
			c-7.3,2.5-15.5,1.3-20.8-6.2c-8.3-11.7-17.1-23-25.6-34.5c-0.6-0.8-1.1-1.7-1.4-2.6c-0.8-2.5,0.7-4.3,3.3-4
			c4.8,0.6,9.6,1.3,14.4,2c14.2,1.9,28.1,0.8,41.7-3.6c17.3-5.6,31.3-16,42.2-30.5c6.7-9,12.2-18.7,16.2-29.3
			c0.3-0.8,0.5-1.6,0.7-2.5C837.2,404.1,837,403.9,836.7,403.7z"/>
		<path class="st0" d="M194.9,213c-17.8-0.7-34.8,2.8-50.9,10c-11.7,5.3-22.2,12.4-31,21.8c-9.9,10.6-17.3,22.8-20.7,37.1
			c-0.3,1.5-0.8,2.9-1.2,4.4c-0.4,1.7-0.6,3.5-3.1,3.8c-2.6,0.3-4.4-0.3-5.8-2.7c-8.4-13.9-11.4-29-9.8-44.9c3.2-32,19.8-55,48-69.9
			c16.3-8.6,33.8-12.3,52.2-12.6c32.8-0.5,63.1,8,91.1,24.7c16.1,9.6,31.8,20.1,47.4,30.5c5.8,3.9,10.8,8.7,11.9,16.2
			c0.5,3.3,0.5,6.6,1.1,9.9c0.9,5,4.8,7.8,9.4,7.1c2.5-0.4,3.9-2.1,4.9-4.1c1.3-2.5,2.4-5,3.4-7.6c0.8-2,2-2.9,4-2.7
			c4.8,0.3,9.6,0.5,14.5,1c16.6,1.7,32.2-1.7,47.1-9.1c2.2-1.1,4.5-2.2,6.9-3c0.9-0.3,2,0,3,0.1c-0.2,1-0.1,2.2-0.7,2.9
			c-2.9,3.5-5.8,7.1-9,10.3C393.6,250.4,376,257,356.5,259c-23.2,2.4-44.9-3-65.5-13.2c-10.7-5.3-21-11.3-31.6-16.6
			c-16.6-8.2-33.7-14.8-52.3-16.1C203,212.8,198.9,213,194.9,213z"/>
		<path class="st0" d="M1024.9,316c0-3.7,0.1-7.1,0-10.5c-0.2-5.4-4.3-10.3-9.3-11.5c-3.2-0.7-6.1-0.2-8.4,2.3
			c-4.2,4.6-6,9.9-3.9,16.1c3.2,9.4,9.4,16.8,16.1,23.8c6,6.2,10.9,12.9,13.4,21.3c5.7,19.4,0,36.6-16.8,47.9
			c-12.3,8.3-26.1,10.9-40.7,9.7c-9.1-0.7-17.8-2.8-26-7c-10.9-5.6-17.7-14.7-21.5-26c-1.4-4-2.3-8.3-3.3-12.4
			c-0.9-3.9,0.8-6.8,4.3-8.7c6.4-3.5,12.8-7.1,19.3-10.5c1.8-0.9,3.8-1.4,5.9-2.1c0.6,3.4,0.9,6.3,1.5,9.1
			c1.8,8.7,5.2,16.6,12.6,22.1c4.3,3.1,9.2,4.9,14.5,4.9c10.8,0.1,17.9-6.9,14-18.9c-2.1-6.6-6.5-12.5-10.3-18.4
			c-4-6.4-9-12.1-12.5-18.7c-12.3-23.2,0.7-45.5,18.1-54c17.5-8.6,34.5-7.2,50.4,4.3c7,5,10.3,12.3,11.2,20.6
			c0.4,3.8,0.2,7.7-0.3,11.5c-0.5,3.7-2.2,4.9-5.9,5C1040,316,1032.7,316,1024.9,316z"/>
		<path class="st0" d="M484.5,207.9c5.8-9.9,11.5-19.5,17.3-29.1c0.4-0.7,1.5-1.5,2.3-1.5c6.3-0.1,12.5-0.1,19-0.1
			c0,23.3,0,46.6,0,70.1c-6.1,0-12.2,0-18.4,0c0-12,0-23.9,0-36.6c-1.3,1.6-2.2,2.6-2.9,3.8c-4.3,7.1-8.6,14.3-12.9,21.4
			c-2.1,3.5-6.5,3.7-8.7,0.3c-3.6-5.7-7-11.6-10.6-17.5c-1.5-2.5-3.1-5-5.3-7.3c0,11.9,0,23.8,0,35.9c-6.6,0-12.8,0-19.3,0
			c0-23.3,0-46.5,0-69.9c6.8,0,13.4,0,20,0.1c0.7,0,1.5,0.9,1.9,1.5c5.6,9.4,11.1,18.8,16.7,28.2
			C483.8,207.4,484.1,207.5,484.5,207.9z"/>
		<path class="st0" d="M537.4,176.8c12.7,0.5,25.3,0.3,37.6,1.9c9.3,1.2,16.5,7.2,18.9,16.9c2.3,9.3,0.7,17.8-6.8,24.6
			c-4.3,3.9-4.3,3.8-1.3,8.8c3.3,5.5,6.6,11.1,9.9,16.6c0.3,0.5,0.5,0.9,0.9,1.8c-1.9,0.1-3.6,0.3-5.2,0.3c-4.9,0-9.8,0-14.8,0
			c-1.6,0-2.5-0.7-3.3-2.1c-2.7-5-5.5-10-8.5-15c-2.6-4.5-2.8-4.5-8.5-3.9c0,6.8,0,13.6,0,20.8c-6.4,0-12.5,0-18.9,0
			C537.4,224,537.4,200.8,537.4,176.8z M556.3,211.6c4.6-0.3,9-0.4,13.3-1c3.9-0.5,6.3-3.8,6.3-7.8c0.1-4.1-2.7-8.5-6.4-8.8
			c-4.4-0.4-8.8-0.1-13.3-0.1C556.3,199.5,556.3,205.3,556.3,211.6z"/>
		<path class="st0" d="M943.5,279.2c0.6-0.6,1.2-1.2,1.9-1.7c12.9-10,22.7-22.3,26.9-38.4c0.7-2.5,1.1-5.1,1.8-7.6
			c0.8-2.8,2.1-3.7,4.8-2.8c6.3,2.2,11.8,5.7,15.1,11.8c3.5,6.5,2,13.9-4,20.4c-7.5,8-16.8,13.4-27.4,16.2c-5,1.3-10.1,2.2-15.2,3.2
			c-1.2,0.2-2.4-0.2-3.6-0.3C943.7,279.8,943.6,279.5,943.5,279.2z"/>
		<g>
			<path class="st1" d="M246.6,471.3c-1.8,0-3.3,0-4.9,0c0-6.4,0-12.6,0-18.9c-0.1,0-0.2-0.1-0.2-0.1c-0.7,2.6-1.5,5.2-2.1,7.8
				c-0.7,3.1-1.2,6.3-1.9,9.5c-0.2,0.7-1.1,1.7-1.8,1.7c-2.4,0.2-4.8,0.1-7.3,0.1c-1.4-6-2.8-11.8-4.2-17.7c-0.1,0-0.2,0-0.3,0
				c0,5.7,0,11.5,0,17.5c-1.8,0.1-3.5,0.2-5.5,0.3c0-9.5,0-18.9,0-28.4c2.9,0,5.9,0,8.8,0c1.8,6.9,3.5,13.7,5.2,20.5
				c0.3,0,0.6,0,0.9,0c1.6-6.8,3.1-13.5,4.7-20.5c2.8,0,5.6,0,8.6,0C246.6,452.4,246.6,461.7,246.6,471.3z"/>
		</g>
		<g>
			<g>
				<path class="st1" d="M463.5,451.4c-2.8,0.5-5.1,0.7-6.9-1.9c-1.1-1.5-4.7-1.8-5.8-0.5c-0.8,0.9-1.3,2.4-1.1,3.6
					c0.1,0.7,1.5,1.8,2.4,1.8c2.5,0.1,5-0.3,7.4-0.4c0.9,0,1.8,0.2,2.7,0.1c2.3-0.1,3.4,0.7,3,3.1c-0.1,0.7,0.1,1.4,0.2,2.1
					c-2.8,1.2-3.3,5.5-1.1,7.5c0.8,0.7,1.1,2.1,1.2,3.2c0,0.4-1.5,1.2-2.3,1.2c-4.2,0.2-8.4,0.3-12.6,0.2c-3.1-0.1-5.7-1.3-6.5-4.6
					c-0.8-3.3-1.2-6.6,2.2-9c0.3-0.2,0.4-0.5,0.7-1c-3.5-3.2-3.8-7-1.4-10.7c2.2-3.5,6.1-3.5,9.9-3.3
					C460.7,443.1,462.3,446.8,463.5,451.4z M457.6,466.8c0-2,0-3.5,0-5c0.1-1.6-0.9-1.9-2.1-1.6c-2.1,0.4-4.7-1.2-6.4,1.3
					c0,0.1,0,0.2,0,0.3c0.2,2,0.8,3.8,2.9,4.3C453.7,466.4,455.4,466.5,457.6,466.8z"/>
			</g>
		</g>
		<g>
			<g>
				<path class="st1" d="M507.2,471.5c-2.2,0-3.7,0.2-5.2-0.1c-0.7-0.1-1.5-0.8-1.9-1.5c-1.7-2.9-3.1-6-5-8.8
					c-0.6-0.9-2.4-0.9-4-1.5c0,4.2,0,7.8,0,11.5c-1.9,0-3.5,0-5.4,0c0-9.2,0-18.6,0-28.1c4.9,0,10-0.6,14.8,0.3
					c2.2,0.4,4.5,3.6,5.4,6c1.1,3,0.4,6.6-2.7,8.6c-2.2,1.4-2.2,2.4-0.9,4.4C503.9,465,505.3,468,507.2,471.5z M491.1,454.8
					c2.1-0.2,4.3,0,6.1-0.7c1.1-0.5,2.1-2.3,2.3-3.6c0.3-1.9-1.5-2-3-2.2C490.7,447.8,490.3,448.3,491.1,454.8z"/>
			</g>
		</g>
		<g>
			<path class="st1" d="M310.3,460.3c0,3.8,0,7.2,0,10.9c-1.9,0-3.5,0-5.4,0c0-9.3,0-18.7,0-28.2c1.7,0,3.4,0,5.3,0
				c0,3.9,0,7.6,0,11.5c3.6,0,6.9,0,10.5,0c0-3.8,0-7.6,0-11.5c1.9,0,3.6,0,5.4,0c0,9.4,0,18.8,0,28.3c-1.7,0-3.4,0-5.3,0
				c0-3.5,0-7.2,0-11C317.3,460.3,314,460.3,310.3,460.3z"/>
		</g>
		<g>
			<g>
				<path class="st1" d="M387.8,464.4c-0.5,2.5-0.9,4.6-1.3,6.8c-1.9,0-3.8,0-5.9,0c2.7-9.4,5.4-18.7,8.1-28.2c2.4,0,5.2,0,7.8,0
					c2.7,9.4,5.4,18.7,8.2,28.4c-1.9,0-3.5,0.2-5-0.1c-0.7-0.1-1.4-1.3-1.5-2.2c-0.7-4.8-0.7-4.8-5.6-4.7
					C391.1,464.5,389.6,464.4,387.8,464.4z M395.6,459.6c-1.1-3.5-2.1-6.5-3.3-10.1c-1,3.8-1.9,6.9-2.8,10.1
					C391.5,459.6,393.3,459.6,395.6,459.6z"/>
			</g>
		</g>
		<g>
			<path class="st1" d="M581.7,466.5c-0.2,1.7-0.3,3.1-0.4,4.8c-6.1,0-12,0-18.2,0c0-9.4,0-18.7,0-28.2c6.1,0,12.3,0,18.4,0
				c-0.1,1.7-0.2,3.3-0.4,5.2c-4.2,0-8.4,0-12.7,0c0,2.2,0,4.1,0,6.4c3.6,0,7.1,0,10.7,0c0,2,0,3.6,0,5.5c-3.5,0-7,0-10.7,0
				c0,2.2,0,4.1,0,6.4C572.8,466.5,577.1,466.5,581.7,466.5z"/>
		</g>
		<g>
			<g>
				<path class="st1" d="M593.7,443c2.5,0,5.1,0,7.7,0c2.8,9.4,5.5,18.8,8.4,28.5c-1.7,0-3-0.1-4.4,0c-1.5,0.1-2-0.5-2.1-2
					c-0.6-5-0.7-5-5.6-5c-0.9,0-1.8,0-2.7-0.1c-1.6-0.2-2.3,0.4-2.6,2.1c-0.8,5.3-0.8,5.3-6.7,4.6
					C588.3,461.9,590.9,452.6,593.7,443z M594.5,459.7c2.1,0,3.9,0,5.9,0c-0.8-3.3-1.4-6.3-2.1-9.3c-0.2,0-0.5,0-0.7,0
					C596.5,453.4,595.5,456.4,594.5,459.7z"/>
			</g>
		</g>
		<g>
			<g>
				<path class="st1" d="M252.6,471.2c2.7-9.5,5.3-18.8,8-28.3c2,0,4.4-0.1,6.7,0.1c0.5,0,1.3,0.7,1.4,1.2c2.6,8.6,5.2,17.3,7.7,26
					c0.1,0.3,0,0.7,0,1.2c-2,0-3.9,0-5.6,0c-0.7-2.3-0.7-5.2-2.1-6.3c-1.3-1.1-4.1-0.2-6.2-0.5c-2.3-0.3-2.9,0.7-3.2,2.7
					C258.5,471.6,257.9,472,252.6,471.2z M265,450.4c-0.2,0-0.4,0-0.7,0c-1,3-2,6-3,9.2c2.1,0,3.9,0,6,0
					C266.6,456.2,265.8,453.3,265,450.4z"/>
			</g>
		</g>
		<g>
			<path class="st1" d="M373.7,454.6c0,2,0,3.5,0,5.5c-1.7,0-3.4,0-5,0c-1.6,0-3.2,0-5,0c0,2.1,0,4.1,0,6.3c4.1,0,8.3,0,12.6,0
				c0,1.7,0,3.2,0,4.8c-6,0-11.9,0-18,0c0-9.4,0-18.7,0-28.2c6,0,12,0,18.1,0c0,1.8,0,3.3,0,5.2c-4.3,0-8.4,0-12.7,0
				c0,2.2,0,4.1,0,6.4C366.9,454.6,370.2,454.6,373.7,454.6z"/>
		</g>
		<path class="st0" d="M618.8,247.6c-6,0.1-10.1-3.8-10.2-9.5c-0.1-6.4,4.1-10.7,10.5-10.7c5.5,0,10.1,4.5,10.2,10
			C629.4,243.8,625.5,247.6,618.8,247.6z"/>
		<g>
			<path class="st1" d="M518.4,460.1c0,2.3,0,4.1,0,6.2c4,0,8,0,12.2,0c0,1.8,0,3.2,0,4.9c-5.7,0-11.5,0-17.5,0c0-9.4,0-18.8,0-28.3
				c5.7,0,11.5,0,17.5,0c0,1.6,0,3.3,0,5.2c-4,0-7.9,0-12,0c0,2.2,0,4.1,0,6.4c3.2,0,6.4,0,9.9,0c0,2,0,3.6,0,5.6
				C525.1,460.1,521.9,460.1,518.4,460.1z"/>
		</g>
		<g>
			<path class="st1" d="M212.3,452.3c-2.5-1-4.4-1.7-6.2-2.4c-1.2-0.5-2.5-1.5-3.6-1.3c-1.1,0.2-2.4,1.4-2.9,2.5
				c-0.7,1.5,0.6,2.4,2,2.8c1.7,0.5,3.4,1,5.2,1.5c2.9,0.8,5.1,2.3,5.4,5.6c0.4,3.5-0.2,6.9-3.3,9.1c-4.9,3.5-12.3,1.2-14.2-4.4
				c-0.3-0.9,0-3,0.4-3.1c1.5-0.4,3.3-0.8,4.5,1.2c1.4,2.5,4.2,3.3,6,1.7c0.8-0.7,1.3-2,1.3-3c0-0.6-1.2-1.4-2-1.8
				c-1.6-0.6-3.2-1-4.9-1.5c-3-0.7-5-2.4-5.6-5.5c-0.6-3.2,0-6.2,2.4-8.4c3.1-2.8,6.7-3.2,10.5-1.7
				C210.7,444.9,212.1,447.6,212.3,452.3z"/>
		</g>
		<g>
			<g>
				<path class="st1" d="M541.9,460.5c0,3.6,0,7,0,10.8c-1.6,0.1-3,0.2-4.7,0.3c0-9.6,0-19,0-28.5c4.7,0,9.4-0.3,14.1,0.1
					c3.3,0.3,6.4,4.7,6.5,8c0,4-2.7,7.8-6.4,8.5C548.3,460.2,545.3,460.2,541.9,460.5z M542,448.4c-0.1,1.6-0.3,3-0.2,4.4
					c0.1,0.7,1,1.6,1.6,1.7c1.6,0.2,3.2,0.1,4.8,0c1.8-0.2,2.6-1.3,2.5-3.1c-0.1-1.8-0.9-2.9-2.7-3
					C546.2,448.3,544.3,448.4,542,448.4z"/>
			</g>
		</g>
		<g>
			<path class="st1" d="M299.2,451.1c-3.1,1-5.2,0.1-7.3-1.6c-2.5-2.1-4.9-1.6-5.8,1.1c-0.6,1.7-0.1,2.8,1.6,3.4
				c1.6,0.5,3.3,1,4.9,1.4c3.3,0.8,5.5,2.7,6,6.1c0.6,3.3-0.5,6.2-3.1,8.4c-4.6,3.8-12.2,1.8-14.2-3.9c-0.4-1,0-2.3,0-3.4
				c1.6,0.4,3.3,0.7,4.8,1.4c1.2,0.5,2.1,1.9,3.3,2.3c1.9,0.6,3.3-0.6,3.9-2.4c0.6-1.9-0.7-2.8-2.3-3.3c-1.6-0.5-3.3-1-4.9-1.5
				c-2.7-0.8-4.7-2.2-5.2-5.1c-0.6-3.3-0.4-6.4,2.2-8.7c2.8-2.4,6.2-3.2,9.8-2C296.5,444.5,298.1,447.4,299.2,451.1z"/>
		</g>
		<g>
			<path class="st1" d="M623,471.3c-2.2,0-3.8,0-5.8,0c0-7.6,0-15.2,0-22.9c-2.2,0-4.1,0-6.2,0c-0.2-1.8-0.4-3.5-0.6-5.3
				c6.4,0,12.7,0,19.1,0c-0.1,1.8-0.2,3.4-0.3,5.3c-2.1,0-4,0-6.3,0C623,456,623,463.5,623,471.3z"/>
		</g>
		<g>
			<path class="st1" d="M412.3,471.3c0-7.7,0-15.1,0-22.8c-2.1,0-4.1,0-6.3,0c0-1.8,0-3.5,0-5.4c6,0,12.2,0,18.5,0
				c-0.1,1.8-0.2,3.4-0.4,5.1c-0.5,0.1-0.8,0.2-1.2,0.2c-5.2,0.2-5.2,0.2-5.2,5.3c0,5.8,0,11.6,0,17.6
				C416,471.3,414.4,471.3,412.3,471.3z"/>
		</g>
		<g>
			<path class="st1" d="M644.7,457.3c0.1-3.6,2.1-5.7,5.7-5.6c3.7,0.1,5.8,2.1,5.8,5.6c-0.1,3.4-2.3,5.8-5.4,5.8
				C647.4,463.2,644.6,460.5,644.7,457.3z"/>
		</g>
		<g>
			<path class="st1" d="M172.6,451.8c3.6,0,5.9,2.1,6,5.4c0.1,3.3-2.4,5.7-6.1,5.7c-3.4,0-5.3-2-5.3-5.6
				C167.2,453.8,169.1,451.9,172.6,451.8z"/>
		</g>
		<g>
			<path class="st1" d="M338.9,466.1c1.8,1,3.7,1.3,4.3,2.5c1.1,2-0.7,4.5-4.3,6.3C338.9,472.1,338.9,469.6,338.9,466.1z"/>
		</g>
	</g>
</g>
</svg>
