<?xml version="1.0" encoding="utf-8"?>
<!-- Generator: Adobe Illustrator 23.0.3, SVG Export Plug-In . SVG Version: 6.00 Build 0)  -->
<svg version="1.1" id="Capa_1" xmlns="http://www.w3.org/2000/svg" xmlns:xlink="http://www.w3.org/1999/xlink" x="0px" y="0px"
	 viewBox="0 0 1080 1080" style="enable-background:new 0 0 1080 1080;" xml:space="preserve">
<style type="text/css">
	.st0{fill:#FFFFFF;}
	.st1{fill:#DA291C;}
	.st2{fill:#D60812;}
	.st3{opacity:0.3;}
	.st4{fill:#212023;}
	.st5{fill:#FE000C;}
	.st6{fill:#F6BB00;}
	.st7{fill:#00428B;}
	.st8{fill:#F6BB01;}
	.st9{fill:#F7BB01;}
	.st10{fill:#F3BD0A;}
	.st11{fill:#F2BC0B;}
	.st12{fill:#F3BB0B;}
	.st13{fill:#F3BC09;}
	.st14{fill:#F2BB0B;}
	.st15{fill:#F3BB0A;}
	.st16{fill:#F3BB08;}
	.st17{fill:#F2BC0A;}
	.st18{fill:#F3BC0A;}
	.st19{fill:#F2BB09;}
	.st20{fill:#F3BB09;}
	.st21{fill:#F4BC0A;}
	.st22{fill:#F3BC08;}
	.st23{fill:#F4BC09;}
	.st24{fill:#F5BC08;}
	.st25{fill:#F5BB09;}
	.st26{fill:#F5BC09;}
	.st27{fill:#F5BB0A;}
	.st28{fill:#F5BC0A;}
	.st29{fill:#F4BB0B;}
	.st30{fill:#F4BB0A;}
	.st31{fill:#F4BC08;}
	.st32{fill:#F3BD0B;}
	.st33{fill:#F4BC0B;}
	.st34{fill:#F5BD09;}
	.st35{fill:#F5BD0A;}
	.st36{fill:#064388;}
	.st37{fill:#034189;}
	.st38{fill:#084082;}
	.st39{fill:#ED1C24;}
	.st40{fill:#00273E;}
	.st41{fill:#029CDC;}
	.st42{fill:#040607;}
	.st43{fill:#EA202C;}
	.st44{fill:#FEFEFE;}
	.st45{fill:#263A54;}
	.st46{fill:#FDFDFD;}
	.st47{fill:#E1211C;}
	.st48{fill:#FAF6F5;}
	.st49{fill:#FAF7F7;}
	.st50{fill:#FBF7F5;}
	.st51{fill:#FAF8F7;}
	.st52{fill:#F9EFED;}
	.st53{fill:#FBFBFB;}
	.st54{fill:#FCFCFC;}
	.st55{fill:#E9C41B;}
	.st56{fill:#195AB6;}
	.st57{fill:#84D1F0;}
	.st58{fill:#035188;}
	.st59{fill:#04508D;}
	.st60{fill:#025287;}
	.st61{fill:#E4B65A;}
	.st62{fill:#04518F;}
	.st63{fill:#E6B459;}
	.st64{fill:#E3B359;}
	.st65{fill:#234D7B;}
	.st66{fill:#025985;}
	.st67{fill:#8FCFE5;}
	.st68{fill:#93D2E9;}
	.st69{fill:#80D0E9;}
	.st70{fill:#014F81;}
	.st71{fill:#024B7C;}
	.st72{fill:#044C7C;}
	.st73{fill:#024B7A;}
	.st74{fill:#A2C8D7;}
	.st75{fill:#D3BC7D;}
	.st76{fill:#358BB6;}
	.st77{fill:#5599BC;}
	.st78{fill:#2C79A6;}
	.st79{fill:#64A7C9;}
	.st80{fill:#7CAEC8;}
	.st81{fill:#68A3C6;}
	.st82{fill:#2F79B1;}
	.st83{fill:#689FBF;}
	.st84{fill:#6FA5C8;}
	.st85{fill:#034E7C;}
	.st86{fill:#99BBCE;}
	.st87{fill:#A3C3D5;}
	.st88{fill:#EDE1AA;}
	.st89{fill:#81B2CE;}
	.st90{fill:#719CBD;}
	.st91{fill:#9ECFD4;}
	.st92{fill:#0F4474;}
	.st93{fill:#174173;}
	.st94{fill:#E1B764;}
	.st95{fill:#016083;}
	.st96{fill:#089591;}
	.st97{fill:#0B9794;}
	.st98{fill:#069791;}
	.st99{fill:#079A93;}
	.st100{fill:#099593;}
	.st101{fill:#089798;}
	.st102{fill:#059699;}
	.st103{fill:#069596;}
	.st104{fill:#079592;}
	.st105{fill:#144D77;}
	.st106{fill:#144C77;}
	.st107{fill:#07988F;}
	.st108{fill:#024D7B;}
	.st109{fill:#CEB27B;}
	.st110{fill:#4C696A;}
	.st111{fill:#8FB7CE;}
	.st112{fill:#035582;}
	.st113{fill:#025D82;}
	.st114{fill:#055383;}
	.st115{fill:#099795;}
	.st116{fill:#06989A;}
	.st117{fill:#079B94;}
	.st118{fill:#099498;}
	.st119{fill:#0A9995;}
	.st120{fill:#049C92;}
	.st121{fill:#045B82;}
	.st122{fill:#039F90;}
	.st123{fill:#099698;}
	.st124{fill:#069D91;}
	.st125{fill:#059398;}
	.st126{fill:#0A9397;}
	.st127{fill:#099995;}
	.st128{fill:#045583;}
	.st129{fill:#055A81;}
	.st130{fill:#035B80;}
	.st131{fill:#0B9197;}
	.st132{fill:#109496;}
	.st133{fill:#D0AF72;}
	.st134{fill:#015D7C;}
	.st135{fill:#036896;}
	.st136{fill:#1A8BA8;}
	.st137{fill:#7DBDD0;}
	.st138{fill:#016481;}
	.st139{fill:#099694;}
	.st140{fill:#089593;}
	.st141{fill:#069799;}
	.st142{fill:#0A9597;}
	.st143{fill:#099695;}
	.st144{fill:#104A72;}
	.st145{fill:#0A9598;}
	.st146{fill:#079994;}
	.st147{fill:#124972;}
	.st148{fill:#064B94;}
	.st149{fill:#024E78;}
	.st150{fill:#93C4E2;}
	.st151{fill:#099594;}
	.st152{fill:#069A96;}
	.st153{fill:#079B97;}
	.st154{fill:#069B93;}
	.st155{fill:#059891;}
	.st156{fill:#0B9594;}
	.st157{fill:#0F9799;}
	.st158{fill:#045883;}
	.st159{fill:#035B81;}
	.st160{fill:#035C80;}
	.st161{fill:#0B4977;}
	.st162{fill:#097CA3;}
	.st163{fill:#1786AA;}
	.st164{fill:#DDB565;}
	.st165{fill:#0D346A;}
	.st166{fill:#D5B279;}
	.st167{fill:#E5B458;}
	.st168{fill:#E6B359;}
	.st169{fill:#E0B664;}
	.st170{fill:#084C8B;}
	.st171{fill:#094C8E;}
	.st172{fill:#D9B76E;}
	.st173{fill:#DDB673;}
	.st174{fill:#D3B77D;}
	.st175{fill:#D6B67C;}
	.st176{fill:#083E66;}
	.st177{fill:#EBC085;}
	.st178{fill:#928E81;}
	.st179{fill:#7D856C;}
	.st180{fill:#12456C;}
	.st181{fill:#718176;}
	.st182{fill:#767F6D;}
	.st183{fill:#636C5A;}
	.st184{fill:#164860;}
	.st185{fill:#D1B17F;}
	.st186{fill:#D7B27F;}
	.st187{fill:#025D7C;}
	.st188{fill:#CAB47B;}
	.st189{fill:#079797;}
	.st190{fill:#A7C8DA;}
	.st191{fill:#0A9A92;}
	.st192{fill:#124B7D;}
	.st193{fill:#66777C;}
	.st194{fill:#F6D48C;}
	.st195{fill:#4F6262;}
	.st196{fill:#014F96;}
	.st197{fill:#18507D;}
	.st198{fill:#E0B569;}
	.st199{fill:#154D73;}
	.st200{fill:#025094;}
	.st201{fill:#DEB36A;}
	.st202{fill:#104361;}
	.st203{fill:#AD9673;}
	.st204{fill:#A2A694;}
	.st205{fill:#A4A389;}
	.st206{fill:#3A464A;}
	.st207{fill:#025093;}
	.st208{fill:#E1B365;}
	.st209{fill:#C1B48C;}
	.st210{fill:#24484B;}
	.st211{fill:#A1946D;}
	.st212{fill:#193542;}
	.st213{fill:#144D71;}
	.st214{fill:#575F75;}
	.st215{fill:#174663;}
	.st216{fill:#133F58;}
	.st217{fill:#FE402E;}
	.st218{fill:#FFEFCA;}
	.st219{fill:#1E1D22;}
</style>
<g id="Nuevo_símbolo_10">
</g>
<g>
	<g>
		<path class="st217" d="M502.51,529.58c3.33-3.35,6.64-6.72,9.99-10.06c13.19-13.12,27.21-25.19,43.6-34.24
			c8.99-4.97,18.63-7.83,28.88-8.47c1.93-0.12,4.06-0.12,5.83,0.53c8.23,3.03,9.79,6.42,9.36,13.32
			c-0.42,6.55-2.71,12.59-5.51,18.43c-8.48,17.69-17.02,35.35-25.51,53.04c-0.93,1.94-1.9,3.9-2.43,5.96
			c-0.37,1.45-0.56,3.46,0.18,4.51c0.51,0.72,2.95,0.67,4.18,0.15c3.52-1.49,7.01-3.17,10.25-5.19c3.94-2.47,7.61-5.36,11.39-8.09
			c4.39-3.17,6.01-8.17,8.22-12.72c9.84-20.31,19.55-40.68,29.33-61.02c11.18-23.24,22.37-46.47,33.63-69.67
			c0.39-0.81,1.69-1.67,2.57-1.68c13.53-0.07,27.06-0.03,40.59,0.06c2.54,0.02,3.19,0.98,2.39,3.47c-0.74,2.29-1.67,4.54-2.73,6.71
			c-10.56,21.66-21.17,43.29-31.73,64.95c-1.28,2.63-2.33,5.38-3.41,7.93c7.54-4.57,14.83-9.56,22.61-13.58
			c13.05-6.74,26.85-9.25,41.35-5.05c9.9,2.86,15.61,9.52,17.97,19.44c2.55,10.73-0.98,20.15-6.04,29.22
			c-5.43,9.74-13.53,17.08-22.23,23.79c-9,6.94-18.88,12.34-29.52,16.3c-2.59,0.96-3.51,2.41-3.4,5.2
			c0.34,8.54,0.88,17.08,3.86,25.13c6.02,16.31,17.45,27.29,34,32.65c16.88,5.47,33.94,5.81,51.07,0.96
			c1.37-0.39,2.81-0.58,4.22-0.78c1.78-0.25,2.47,0.76,1.76,2.22c-0.72,1.49-1.76,2.92-2.95,4.07
			c-10.63,10.34-23.9,15.26-38.08,17.95c-13.35,2.53-26.78,2.44-40.02-0.77c-25.16-6.08-41.72-21.51-49.39-46.32
			c-3.12-10.09-4.23-20.5-4.68-31c-0.19-4.56-0.84-9.16-0.46-13.67c0.72-8.54,0.84-7.8,7.55-10.1c11.17-3.84,21.68-9,31.27-15.88
			c5.69-4.09,10.9-8.76,14.59-14.86c0.46-0.77,0.97-1.52,1.3-2.35c1.3-3.17,2.17-6.73-0.03-9.46c-2.23-2.77-5.95-3.33-9.41-2.4
			c-3.35,0.91-6.69,2.06-9.8,3.6c-18.38,9.08-32,23.08-41.36,41.18c-9.21,17.82-18.08,35.83-27.06,53.77
			c-1.2,2.4-2.36,4.84-3.31,7.35c-0.85,2.24-2.31,3.3-4.65,3.29c-3.4-0.01-6.81-0.01-10.21-0.02c-9.23-0.03-18.46,0.01-27.68-0.15
			c-4.36-0.07-5.32-1.71-3.46-5.67c2.74-5.84,5.65-11.6,8.47-17.39c0.36-0.75,0.66-1.53,0.98-2.29c-0.19-0.15-0.37-0.31-0.56-0.46
			c-0.67,0.47-1.34,0.95-2.02,1.42c-7.89,5.41-15.63,11.07-23.73,16.16c-6.16,3.87-13.06,6.24-20.22,7.81
			c-4.87,1.06-9.66,0.7-14.36-0.56c-6.98-1.86-10.53-7.23-10.24-15.07c0.3-8.2,2.94-15.83,5.98-23.31
			c5.86-14.42,13.87-27.68,22.21-40.76c0.96-1.5,1.79-3.12,2.42-4.78c0.35-0.92,0.56-2.36,0.08-2.99c-0.43-0.56-2.02-0.69-2.88-0.38
			c-2.25,0.81-4.54,1.72-6.53,3.02c-11.87,7.72-21.43,17.93-30,29.01c-10.3,13.31-19.98,27.09-30.22,40.44
			c-3.57,4.65-7.68,9.03-12.18,12.78c-6.94,5.8-17.36,3.12-21.39-5c-0.79-1.59-1.49-3.22-2.34-5.07c-2.51,1.69-4.85,3.26-7.19,4.85
			c-6.77,4.61-13.99,8.24-22.37,8.14c-3.95-0.04-8.09-0.64-11.8-1.95c-6.25-2.21-9.07-7.61-10.29-13.76
			c-0.58-2.93-0.43-6.01-0.62-9.26c-0.89,1.11-1.74,2.32-2.74,3.39c-14.31,15.31-31.33,23.97-52.87,21.19
			c-13.97-1.8-23.76-9.44-29.59-22.09c-7.84-17.02-7.52-34.48-1.56-51.86c5.99-17.48,15.33-33,29.44-45.2
			c11.88-10.27,25.58-16.99,41.18-19.66c7.95-1.36,15.82-2.12,23.57,0.88c8.31,3.22,14.18,8.84,17.13,17.36
			c0.27,0.79,0.73,1.51,1.41,2.91c2.23-4.61,4.14-8.6,6.08-12.57c1.26-2.57,2.43-5.2,3.91-7.64c0.54-0.89,1.83-1.87,2.79-1.88
			c11.38-0.12,22.76-0.04,34.14-0.08c2.62-0.01,3.07,1.69,2.71,3.57c-0.37,1.9-1.18,3.75-2.03,5.51
			c-10.33,21.28-20.73,42.52-31.04,63.8c-2.93,6.04-5.76,12.14-8.34,18.33c-0.7,1.69-0.7,3.89-0.37,5.74
			c0.68,3.8,3.69,5.79,7.35,4.64c7.46-2.35,13.87-6.31,17.43-13.67c12.23-25.32,24.41-50.67,36.62-76.01
			c1.55-3.23,3.25-6.39,4.7-9.65c0.78-1.76,1.95-2.29,3.77-2.29c12.28,0.04,24.55,0,36.83,0.02c3.52,0.01,4.87,2.04,3.6,5.41
			c-0.57,1.5-1.31,2.95-2.02,4.4c-6.78,13.93-13.58,27.86-20.36,41.79c-0.11,0.23-0.14,0.5-0.21,0.75
			C502.25,529.35,502.38,529.46,502.51,529.58z M384.34,534.81c-0.46-7.39-2.32-13.09-8.72-16.38c-5.38-2.76-10.64-1.85-15.8,0.39
			c-8.55,3.71-15.09,9.79-20.13,17.58c-4.06,6.28-6.77,13.07-7.28,20.54c-0.69,10.16,6.41,20.38,19.92,16.94
			c2.9-0.74,5.72-2.1,8.34-3.58C374.8,562.33,382.31,549.98,384.34,534.81z"/>
		<path class="st217" d="M164.17,522.73c4.56-1.16,9.18-2.12,13.66-3.53c14.12-4.44,26.69-11.65,37.81-21.45
			c1.57-1.39,1.75-2.54,0.84-4.38c-4.27-8.67-5.64-17.64-2.75-27.1c4.45-14.59,20.26-21.23,32.81-13.59
			c5.94,3.61,8.47,9.49,9.01,16.02c0.73,8.8-2.15,16.77-7.03,24.05c-0.66,0.99-1.21,2.05-2.1,3.56c2.31,0.34,4.05,0.82,5.79,0.83
			c6.89,0.02,13.79-0.11,20.68-0.19c1.97-0.02,3.95-0.22,5.91-0.11c4.71,0.28,7.98,3.5,7.25,8.12c-0.67,4.25-2.05,8.53-3.91,12.42
			c-7.47,15.63-12.15,32.04-13.26,49.27c-0.96,15.08,2.22,29.4,10.68,42.24c0.39,0.6,0.79,1.2,1.16,1.81
			c2.35,3.95,1.2,6.48-3.34,6.56c-11.2,0.19-22.4,0.25-33.59,0.1c-7.5-0.1-9.94-2.11-11.35-9.51c-1.02-5.33-1.87-10.79-1.8-16.18
			c0.09-6.09,1.1-12.2,2.07-18.25c2.75-17.09,9.12-32.9,17.45-47.98c0.86-1.57,1.63-3.19,2.34-4.83c1.14-2.61,0.67-3.44-2.15-4.16
			c-4.59-1.18-9.38-1.89-13.7-3.72c-3.73-1.58-5.82-0.54-8.34,2.01c-16.4,16.69-35.37,29.69-57.16,38.29
			c-7.31,2.88-14.98,4.87-22.55,7.04c-2.61,0.75-4.3,1.62-5.55,4.44c-3.88,8.75-8.43,17.21-12.58,25.84
			c-12.35,25.66-24.72,51.32-36.9,77.07c-2.25,4.75-5.61,6.69-10.85,3c-8.93-6.29-18-12.39-27-18.58c-2.85-1.96-3.57-3.95-2.06-7.45
			c1.87-4.35,4.12-8.54,6.19-12.81c10.38-21.44,20.78-42.87,31.13-64.32c2.2-4.55,1.95-5.1-3.21-5.94
			c-12.62-2.04-24.75-5.77-36.69-10.21c-0.59-0.22-1.18-0.44-1.75-0.69c-4.05-1.76-5.18-5.01-2.65-8.65
			c7.51-10.8,15.13-21.54,22.79-32.24c2.22-3.1,3.12-3.28,6.61-1.8c5.36,2.27,10.56,4.92,16.01,6.94
			c6.45,2.39,13.08,4.31,19.67,6.28c0.56,0.17,1.82-0.56,2.13-1.18c6.11-12.26,12.18-24.54,18.17-36.87
			c7.43-15.31,14.82-30.63,22.13-46c2.45-5.14,5.88-7.71,11.97-7.46c10.91,0.45,21.86,0.11,32.79,0.16
			c4.82,0.02,6.81,2.51,5.08,7.11c-1.95,5.18-4.55,10.11-6.95,15.12c-10.79,22.54-21.61,45.07-32.41,67.6
			c-0.38,0.79-0.66,1.62-0.98,2.43C163.86,522.16,164.01,522.45,164.17,522.73z"/>
		<path class="st217" d="M817.62,605.42c-3.47,1.8-6.86,3.76-10.42,5.36c-14.15,6.37-28.83,8.33-44.02,4.59
			c-12.18-3-19.51-12.84-19.84-26.11c-0.31-12.33,3.33-23.59,8.68-34.54c11.56-23.65,22.87-47.43,34.27-71.16
			c3.19-6.65,3.16-6.68,10.41-6.7c8.69-0.01,17.38-0.01,26.07,0.02c3.46,0.01,4.82,2.01,3.59,5.37c-0.58,1.59-1.38,3.11-2.12,4.64
			c-11.23,23.12-22.55,46.2-33.6,69.4c-1.77,3.72-2.89,7.95-3.38,12.05c-0.83,7.03,3.24,12.2,10.16,13.58
			c4.57,0.91,9.06,0.47,13.38-1.56c12.23-5.74,20.72-15.33,26.66-27.05c10.41-20.52,20.3-41.3,30.44-61.96
			c2.09-4.26,4.23-8.49,6.56-12.63c0.49-0.87,1.87-1.74,2.85-1.75c10.57-0.12,21.14-0.09,31.71-0.03c3.03,0.01,3.86,1.07,2.83,4.07
			c-1.13,3.29-2.59,6.48-4.04,9.66c-12.26,26.89-24.59,53.75-36.82,80.66c-8.41,18.51-16.65,37.09-25.05,55.6
			c-8.87,19.57-20.19,37.56-35.29,52.95c-10.86,11.07-23.27,20.19-37.35,26.77c-8.34,3.89-16.88,7.45-25.58,10.43
			c-7.29,2.51-15.49,1.28-20.78-6.16c-8.3-11.67-17.09-23-25.64-34.49c-0.58-0.78-1.14-1.65-1.42-2.57
			c-0.77-2.45,0.71-4.34,3.25-4.04c4.8,0.56,9.58,1.3,14.37,1.95c14.16,1.91,28.12,0.84,41.69-3.56
			c17.3-5.61,31.28-15.99,42.17-30.54c6.74-9.02,12.22-18.74,16.21-29.28c0.3-0.79,0.46-1.63,0.69-2.45
			C818.04,605.76,817.83,605.59,817.62,605.42z"/>
		<path class="st217" d="M175.8,414.7c-17.75-0.69-34.76,2.75-50.92,10.05c-11.69,5.28-22.23,12.42-31.01,21.81
			c-9.92,10.61-17.35,22.76-20.73,37.1c-0.35,1.48-0.78,2.94-1.16,4.42c-0.45,1.72-0.62,3.53-3.07,3.77
			c-2.57,0.25-4.37-0.34-5.81-2.72c-8.39-13.87-11.39-28.97-9.79-44.89c3.22-31.96,19.77-55.03,47.98-69.88
			c16.3-8.59,33.79-12.31,52.22-12.6c32.81-0.52,63.13,8.05,91.11,24.73c16.15,9.62,31.77,20.14,47.43,30.55
			c5.79,3.85,10.81,8.71,11.86,16.21c0.46,3.28,0.55,6.61,1.13,9.87c0.89,5,4.79,7.76,9.4,7.07c2.54-0.38,3.91-2.1,4.94-4.12
			c1.25-2.47,2.39-5.02,3.38-7.6c0.75-1.97,2.05-2.85,4.05-2.73c4.82,0.29,9.65,0.5,14.45,0.98c16.62,1.68,32.22-1.72,47.07-9.12
			c2.24-1.12,4.51-2.19,6.85-3.05c0.87-0.32,1.98,0.03,2.99,0.07c-0.22,0.98-0.14,2.21-0.72,2.91c-2.88,3.52-5.76,7.08-8.95,10.31
			c-14.07,14.25-31.61,20.82-51.17,22.84c-23.2,2.4-44.86-2.95-65.47-13.22c-10.66-5.31-20.97-11.31-31.65-16.58
			c-16.55-8.17-33.66-14.76-52.32-16.12C183.87,414.45,179.82,414.7,175.8,414.7z"/>
		<path class="st217" d="M1005.81,517.69c0-3.72,0.11-7.11-0.03-10.49c-0.22-5.44-4.25-10.32-9.34-11.47
			c-3.18-0.72-6.13-0.16-8.39,2.31c-4.24,4.61-5.98,9.86-3.91,16.06c3.17,9.44,9.38,16.83,16.12,23.81
			c5.99,6.2,10.95,12.89,13.42,21.35c5.69,19.43-0.03,36.58-16.81,47.93c-12.27,8.3-26.11,10.91-40.74,9.74
			c-9.1-0.72-17.82-2.8-26.01-7.01c-10.92-5.61-17.65-14.65-21.55-25.99c-1.39-4.05-2.34-8.25-3.31-12.43
			c-0.91-3.94,0.79-6.76,4.25-8.65c6.44-3.52,12.85-7.1,19.34-10.52c1.76-0.93,3.78-1.36,5.92-2.1c0.56,3.36,0.93,6.27,1.53,9.13
			c1.82,8.71,5.16,16.63,12.63,22.08c4.3,3.13,9.22,4.88,14.54,4.93c10.76,0.11,17.93-6.86,14.01-18.9
			c-2.14-6.56-6.54-12.45-10.27-18.42c-3.97-6.36-8.97-12.14-12.46-18.73c-12.26-23.18,0.74-45.45,18.07-53.99
			c17.5-8.62,34.5-7.21,50.42,4.3c6.98,5.05,10.25,12.33,11.21,20.6c0.44,3.77,0.15,7.7-0.34,11.49c-0.47,3.66-2.24,4.92-5.87,4.95
			C1020.92,517.73,1013.59,517.69,1005.81,517.69z"/>
		<path class="st217" d="M465.35,409.55c5.83-9.85,11.5-19.48,17.25-29.06c0.42-0.7,1.47-1.45,2.25-1.46
			c6.26-0.12,12.52-0.07,19.03-0.07c0,23.34,0,46.58,0,70.06c-6.1,0-12.23,0-18.41,0c0-12.04,0-23.89,0-36.59
			c-1.26,1.62-2.21,2.61-2.91,3.76c-4.32,7.12-8.6,14.26-12.87,21.41c-2.08,3.47-6.53,3.73-8.74,0.26
			c-3.65-5.74-7.03-11.65-10.56-17.47c-1.52-2.5-3.1-4.96-5.26-7.3c0,11.89,0,23.78,0,35.92c-6.59,0-12.79,0-19.25,0
			c0-23.28,0-46.5,0-69.9c6.83,0,13.44-0.04,20.05,0.07c0.66,0.01,1.51,0.85,1.91,1.52c5.61,9.37,11.15,18.77,16.72,28.16
			C464.68,409.07,464.94,409.2,465.35,409.55z"/>
		<path class="st217" d="M518.23,378.46c12.66,0.53,25.26,0.26,37.61,1.85c9.34,1.21,16.51,7.18,18.91,16.85
			c2.3,9.25,0.65,17.84-6.8,24.56c-4.27,3.85-4.33,3.81-1.35,8.84c3.29,5.54,6.6,11.06,9.9,16.6c0.27,0.45,0.46,0.94,0.86,1.78
			c-1.91,0.12-3.56,0.29-5.21,0.3c-4.93,0.03-9.85-0.04-14.78,0c-1.64,0.01-2.52-0.66-3.31-2.12c-2.71-5.04-5.55-10.02-8.46-14.95
			c-2.63-4.47-2.81-4.48-8.5-3.92c0,6.81,0,13.65,0,20.76c-6.42,0-12.55,0-18.89,0C518.23,425.74,518.23,402.52,518.23,378.46z
			 M537.15,413.29c4.64-0.34,9-0.44,13.28-1.05c3.88-0.54,6.3-3.82,6.35-7.8c0.06-4.1-2.73-8.49-6.36-8.84
			c-4.38-0.43-8.84-0.1-13.28-0.1C537.15,401.24,537.15,406.99,537.15,413.29z"/>
		<path class="st217" d="M924.4,480.92c0.63-0.56,1.22-1.17,1.89-1.68c12.93-10.03,22.66-22.3,26.9-38.4
			c0.66-2.51,1.12-5.07,1.83-7.56c0.8-2.81,2.09-3.69,4.77-2.75c6.31,2.22,11.82,5.73,15.08,11.78c3.52,6.52,2.04,13.93-4.02,20.41
			c-7.52,8.04-16.77,13.36-27.36,16.2c-4.99,1.34-10.1,2.23-15.19,3.18c-1.15,0.21-2.42-0.2-3.64-0.32
			C924.57,481.49,924.49,481.2,924.4,480.92z"/>
		<g>
			<path class="st219" d="M227.52,672.96c-1.82,0-3.3,0-4.89,0c0-6.4,0-12.63,0-18.86c-0.08-0.03-0.16-0.06-0.24-0.09
				c-0.7,2.58-1.47,5.15-2.06,7.76c-0.71,3.14-1.18,6.33-1.95,9.45c-0.17,0.7-1.14,1.65-1.81,1.71c-2.38,0.21-4.79,0.08-7.29,0.08
				c-1.4-5.95-2.78-11.83-4.17-17.7c-0.09,0.01-0.19,0.03-0.28,0.04c0,5.73,0,11.46,0,17.52c-1.76,0.1-3.5,0.21-5.52,0.33
				c0-9.53,0-18.87,0-28.43c2.86,0,5.85,0,8.75,0c1.75,6.86,3.48,13.66,5.21,20.47c0.3-0.01,0.59-0.01,0.89-0.02
				c1.56-6.77,3.13-13.55,4.73-20.49c2.78,0,5.61,0,8.64,0C227.52,654.06,227.52,663.4,227.52,672.96z"/>
		</g>
		<g>
			<g>
				<path class="st219" d="M444.33,653.06c-2.76,0.51-5.09,0.67-6.89-1.88c-1.07-1.51-4.66-1.81-5.84-0.47
					c-0.77,0.88-1.25,2.42-1.09,3.57c0.1,0.73,1.55,1.79,2.44,1.83c2.47,0.1,4.95-0.29,7.43-0.42c0.89-0.05,1.79,0.18,2.68,0.12
					c2.26-0.14,3.38,0.67,2.96,3.11c-0.11,0.67,0.12,1.4,0.19,2.08c-2.75,1.17-3.26,5.46-1.14,7.5c0.76,0.74,1.14,2.12,1.18,3.23
					c0.01,0.39-1.47,1.18-2.29,1.21c-4.2,0.17-8.42,0.28-12.62,0.16c-3.07-0.09-5.66-1.29-6.47-4.62c-0.81-3.32-1.17-6.61,2.2-8.95
					c0.26-0.18,0.41-0.54,0.7-0.95c-3.49-3.19-3.76-7.05-1.43-10.7c2.22-3.49,6.13-3.5,9.91-3.32
					C441.53,644.82,443.13,648.52,444.33,653.06z M438.48,668.47c0-1.98-0.05-3.47,0.01-4.96c0.06-1.56-0.91-1.87-2.07-1.63
					c-2.13,0.43-4.66-1.18-6.38,1.26c-0.04,0.06-0.01,0.17,0,0.26c0.24,1.95,0.75,3.8,2.94,4.31
					C434.62,668.09,436.32,668.18,438.48,668.47z"/>
			</g>
		</g>
		<g>
			<g>
				<path class="st219" d="M488.09,673.18c-2.2,0-3.73,0.16-5.2-0.07c-0.71-0.11-1.54-0.79-1.93-1.45c-1.71-2.91-3.1-6.02-4.99-8.79
					c-0.6-0.87-2.39-0.93-4.05-1.5c0,4.21,0,7.75,0,11.53c-1.89,0-3.55,0-5.41,0c0-9.22,0-18.57,0-28.13c4.9,0,9.98-0.62,14.77,0.28
					c2.16,0.4,4.53,3.56,5.39,5.97c1.07,3.01,0.43,6.62-2.71,8.58c-2.18,1.36-2.22,2.39-0.92,4.4
					C484.82,666.74,486.21,669.72,488.09,673.18z M472.01,656.53c2.15-0.19,4.33,0.04,6.11-0.69c1.12-0.46,2.14-2.27,2.34-3.61
					c0.29-1.9-1.55-2.05-3-2.18C471.62,649.5,471.13,650.04,472.01,656.53z"/>
			</g>
		</g>
		<g>
			<path class="st219" d="M291.16,662.01c0,3.78,0,7.24,0,10.92c-1.85,0-3.5,0-5.35,0c0-9.29,0-18.65,0-28.19c1.67,0,3.39,0,5.34,0
				c0,3.86,0,7.57,0,11.46c3.58,0,6.93,0,10.52,0c0-3.83,0-7.63,0-11.54c1.9,0,3.56,0,5.44,0c0,9.41,0,18.75,0,28.3
				c-1.7,0-3.35,0-5.29,0c0-3.54,0-7.15,0-10.95C298.21,662.01,294.87,662.01,291.16,662.01z"/>
		</g>
		<g>
			<g>
				<path class="st219" d="M368.69,666.14c-0.47,2.48-0.87,4.58-1.3,6.83c-1.93,0-3.78,0-5.87,0c2.7-9.39,5.37-18.65,8.12-28.19
					c2.44,0,5.16,0,7.77,0c2.72,9.39,5.42,18.73,8.21,28.36c-1.88,0-3.5,0.22-4.99-0.1c-0.66-0.14-1.43-1.35-1.55-2.17
					c-0.73-4.78-0.67-4.79-5.6-4.73C371.96,666.16,370.45,666.14,368.69,666.14z M376.51,661.29c-1.13-3.47-2.12-6.49-3.31-10.12
					c-1.05,3.85-1.88,6.92-2.75,10.12C372.4,661.29,374.14,661.29,376.51,661.29z"/>
			</g>
		</g>
		<g>
			<path class="st219" d="M562.55,668.18c-0.15,1.73-0.27,3.12-0.41,4.75c-6.09,0-12.04,0-18.19,0c0-9.36,0-18.71,0-28.22
				c6.14,0,12.27,0,18.44,0c-0.13,1.74-0.24,3.33-0.38,5.2c-4.21,0-8.37,0-12.71,0c0,2.2,0,4.11,0,6.44c3.58,0,7.12,0,10.74,0
				c0,1.99,0,3.57,0,5.47c-3.54,0-6.99,0-10.66,0c0,2.22,0,4.12,0,6.36C553.67,668.18,558.01,668.18,562.55,668.18z"/>
		</g>
		<g>
			<g>
				<path class="st219" d="M574.54,644.65c2.5,0,5.08,0,7.71,0c2.77,9.4,5.54,18.78,8.4,28.49c-1.65,0-3.05-0.07-4.44,0.02
					c-1.48,0.1-1.96-0.48-2.14-1.96c-0.6-4.96-0.67-4.95-5.56-5c-0.89-0.01-1.79,0.03-2.68-0.06c-1.62-0.16-2.34,0.37-2.59,2.14
					c-0.76,5.3-0.85,5.29-6.74,4.63C569.16,663.56,571.8,654.26,574.54,644.65z M575.33,661.39c2.14,0,3.87,0,5.92,0
					c-0.75-3.28-1.44-6.3-2.13-9.31c-0.24,0-0.48,0-0.73,0C577.4,655.09,576.41,658.1,575.33,661.39z"/>
			</g>
		</g>
		<g>
			<g>
				<path class="st219" d="M233.47,672.87c2.68-9.48,5.29-18.75,7.99-28.33c2.04,0,4.36-0.07,6.66,0.06
					c0.5,0.03,1.25,0.68,1.41,1.19c2.62,8.64,5.17,17.3,7.71,25.95c0.09,0.32,0.01,0.69,0.01,1.15c-2,0-3.91,0-5.61,0
					c-0.7-2.34-0.72-5.17-2.12-6.31c-1.32-1.08-4.12-0.23-6.22-0.52c-2.26-0.31-2.92,0.69-3.24,2.72
					C239.33,673.34,238.76,673.65,233.47,672.87z M245.92,652.05c-0.23-0.01-0.45-0.03-0.68-0.04c-0.98,2.98-1.96,5.96-3.01,9.15
					c2.12,0,3.92,0,6.02,0C247.43,657.94,246.68,654.99,245.92,652.05z"/>
			</g>
		</g>
		<g>
			<path class="st219" d="M354.53,656.32c0,2,0,3.51,0,5.52c-1.73,0-3.39,0-5.05,0c-1.6,0-3.2,0-4.98,0c0,2.14,0,4.06,0,6.28
				c4.12,0,8.29,0,12.65,0c0,1.74,0,3.19,0,4.85c-5.99,0-11.86,0-18.01,0c0-9.36,0-18.71,0-28.23c5.98,0,12.01,0,18.08,0
				c0,1.75,0,3.33,0,5.21c-4.27,0-8.42,0-12.74,0c0,2.22,0,4.14,0,6.38C347.76,656.32,351.03,656.32,354.53,656.32z"/>
		</g>
		<path class="st217" d="M599.66,449.33c-5.98,0.07-10.08-3.77-10.15-9.48c-0.07-6.4,4.14-10.68,10.53-10.7
			c5.49-0.01,10.14,4.55,10.2,10C610.32,445.49,606.4,449.25,599.66,449.33z"/>
		<g>
			<path class="st219" d="M499.24,661.82c0,2.31,0,4.09,0,6.2c4.01,0,7.98,0,12.17,0c0,1.78,0,3.24,0,4.93c-5.73,0-11.48,0-17.52,0
				c0-9.42,0-18.76,0-28.27c5.73,0,11.51,0,17.49,0c0,1.64,0,3.28,0,5.18c-3.97,0-7.87,0-11.97,0c0,2.18,0,4.09,0,6.36
				c3.15,0,6.41,0,9.88,0c0,1.98,0,3.61,0,5.59C506.01,661.82,502.74,661.82,499.24,661.82z"/>
		</g>
		<g>
			<path class="st219" d="M193.21,654.02c-2.47-0.95-4.36-1.67-6.24-2.41c-1.2-0.47-2.5-1.52-3.57-1.32
				c-1.13,0.21-2.44,1.41-2.94,2.51c-0.69,1.53,0.62,2.43,2.03,2.85c1.71,0.52,3.45,0.96,5.17,1.47c2.86,0.84,5.09,2.33,5.41,5.58
				c0.35,3.54-0.16,6.87-3.3,9.13c-4.88,3.51-12.32,1.21-14.19-4.44c-0.31-0.94-0.01-3.01,0.37-3.1c1.54-0.39,3.34-0.81,4.46,1.17
				c1.43,2.53,4.17,3.34,5.96,1.67c0.75-0.7,1.28-1.99,1.26-3c-0.01-0.62-1.16-1.44-1.96-1.77c-1.57-0.64-3.24-1.04-4.89-1.46
				c-2.96-0.74-4.96-2.43-5.55-5.51c-0.61-3.19-0.03-6.19,2.41-8.39c3.06-2.76,6.68-3.24,10.53-1.72
				C191.61,646.64,192.99,649.33,193.21,654.02z"/>
		</g>
		<g>
			<g>
				<path class="st219" d="M522.78,662.2c0,3.58,0,7.05,0,10.82c-1.6,0.09-3.05,0.17-4.71,0.26c0-9.6,0-18.97,0-28.54
					c4.68,0,9.4-0.3,14.07,0.1c3.27,0.28,6.43,4.73,6.46,8.02c0.03,3.99-2.65,7.82-6.41,8.52
					C529.22,661.93,526.17,661.93,522.78,662.2z M522.89,650.1c-0.09,1.62-0.35,3.04-0.16,4.4c0.09,0.66,0.97,1.62,1.6,1.72
					c1.56,0.23,3.2,0.12,4.79-0.02c1.81-0.16,2.61-1.27,2.53-3.1c-0.07-1.8-0.91-2.89-2.73-2.98
					C527.06,650.03,525.2,650.1,522.89,650.1z"/>
			</g>
		</g>
		<g>
			<path class="st219" d="M280.08,652.8c-3.08,1.03-5.21,0.11-7.27-1.58c-2.53-2.09-4.87-1.58-5.77,1.08
				c-0.56,1.67-0.07,2.84,1.6,3.38c1.62,0.52,3.25,1,4.91,1.38c3.31,0.76,5.46,2.71,6.02,6.06c0.56,3.33-0.48,6.21-3.13,8.38
				c-4.65,3.81-12.21,1.79-14.19-3.87c-0.35-1.01-0.03-2.25-0.01-3.39c1.6,0.44,3.28,0.72,4.77,1.39c1.21,0.54,2.09,1.91,3.31,2.3
				c1.93,0.62,3.32-0.61,3.9-2.38c0.64-1.91-0.68-2.76-2.29-3.25c-1.63-0.5-3.25-1.01-4.88-1.48c-2.67-0.78-4.68-2.21-5.24-5.13
				c-0.62-3.25-0.37-6.42,2.22-8.68c2.78-2.42,6.2-3.23,9.8-2.03C277.42,646.16,278.94,649.13,280.08,652.8z"/>
		</g>
		<g>
			<path class="st219" d="M603.84,673.03c-2.18,0-3.85,0-5.8,0c0-7.64,0-15.17,0-22.93c-2.21,0-4.14,0-6.22,0
				c-0.2-1.85-0.38-3.5-0.58-5.35c6.37,0,12.65,0,19.13,0c-0.08,1.78-0.16,3.44-0.25,5.25c-2.1,0-4.03,0-6.29,0
				C603.84,657.67,603.84,665.21,603.84,673.03z"/>
		</g>
		<g>
			<path class="st219" d="M393.21,672.95c0-7.65,0-15.14,0-22.79c-2.15,0-4.08,0-6.25,0c0-1.82,0-3.55,0-5.44
				c6.05,0,12.19,0,18.51,0c-0.12,1.75-0.24,3.39-0.36,5.09c-0.48,0.07-0.82,0.15-1.16,0.16c-5.18,0.22-5.21,0.22-5.23,5.34
				c-0.03,5.81-0.01,11.61-0.01,17.64C396.91,672.95,395.26,672.95,393.21,672.95z"/>
		</g>
		<g>
			<path class="st219" d="M625.55,659.04c0.06-3.64,2.14-5.69,5.69-5.61c3.74,0.08,5.83,2.12,5.75,5.6
				c-0.08,3.38-2.33,5.83-5.39,5.85C628.27,664.9,625.5,662.23,625.55,659.04z"/>
		</g>
		<g>
			<path class="st219" d="M153.5,653.52c3.57-0.02,5.95,2.11,5.99,5.4c0.05,3.35-2.44,5.67-6.08,5.66c-3.39-0.01-5.31-2.02-5.34-5.6
				C148.04,655.46,149.94,653.55,153.5,653.52z"/>
		</g>
		<g>
			<path class="st219" d="M319.82,667.77c1.79,0.96,3.68,1.35,4.3,2.45c1.12,2.01-0.73,4.48-4.3,6.27
				C319.82,673.8,319.82,671.26,319.82,667.77z"/>
		</g>
	</g>
</g>
</svg>
